<mxfile host="app.diagrams.net" modified="2021-06-10T07:48:45.195Z" agent="5.0 (Windows NT 6.1; Win64; x64) AppleWebKit/537.36 (KHTML, like Gecko) Chrome/90.0.4430.212 Safari/537.36" etag="fXwj0WF6FGzbxadCP9KI" version="14.7.4" type="github">
  <diagram id="xyIj4YFlFnPbrQ6EcrCU" name="Page-1">
    <mxGraphModel dx="-2931" dy="1051" grid="1" gridSize="10" guides="1" tooltips="1" connect="1" arrows="1" fold="1" page="1" pageScale="1" pageWidth="827" pageHeight="1169" math="0" shadow="0">
      <root>
        <mxCell id="0" />
        <mxCell id="1" parent="0" />
        <mxCell id="yUJZOOV4ahVOhwS2dNvT-66" value="&lt;span style=&quot;color: rgb(0 , 0 , 0) ; font-family: &amp;#34;helvetica&amp;#34; ; font-size: 20px ; font-style: normal ; font-weight: 400 ; letter-spacing: normal ; text-align: center ; text-indent: 0px ; text-transform: none ; word-spacing: 0px ; background-color: rgb(255 , 255 , 255) ; display: inline ; float: none&quot;&gt;Branch 12i&lt;/span&gt;&lt;br style=&quot;color: rgb(0 , 0 , 0) ; font-family: &amp;#34;helvetica&amp;#34; ; font-size: 20px ; font-style: normal ; font-weight: 400 ; letter-spacing: normal ; text-align: center ; text-indent: 0px ; text-transform: none ; word-spacing: 0px ; background-color: rgb(255 , 255 , 255)&quot;&gt;&lt;span style=&quot;color: rgb(0 , 0 , 0) ; font-family: &amp;#34;helvetica&amp;#34; ; font-size: 20px ; font-style: normal ; font-weight: 400 ; letter-spacing: normal ; text-align: center ; text-indent: 0px ; text-transform: none ; word-spacing: 0px ; background-color: rgb(255 , 255 , 255) ; display: inline ; float: none&quot;&gt;Branch 12a&lt;/span&gt;" style="edgeStyle=orthogonalEdgeStyle;rounded=0;orthogonalLoop=1;jettySize=auto;html=1;exitX=1;exitY=0.5;exitDx=0;exitDy=0;" edge="1" parent="1" source="yUJZOOV4ahVOhwS2dNvT-62">
          <mxGeometry relative="1" as="geometry">
            <mxPoint x="5596" y="141" as="targetPoint" />
          </mxGeometry>
        </mxCell>
        <mxCell id="yUJZOOV4ahVOhwS2dNvT-62" value="&lt;font style=&quot;font-size: 17px&quot;&gt;Source control&lt;/font&gt;" style="shape=image;html=1;verticalAlign=top;verticalLabelPosition=bottom;labelBackgroundColor=#ffffff;imageAspect=0;aspect=fixed;image=https://cdn2.iconfinder.com/data/icons/font-awesome/1792/git-square-128.png;fillColor=#666600;" vertex="1" parent="1">
          <mxGeometry x="5276" y="76" width="128" height="128" as="geometry" />
        </mxCell>
        <mxCell id="yUJZOOV4ahVOhwS2dNvT-63" value="&lt;font style=&quot;font-size: 20px&quot;&gt;By Branch&lt;br&gt;&lt;/font&gt;" style="edgeStyle=orthogonalEdgeStyle;rounded=0;orthogonalLoop=1;jettySize=auto;html=1;exitX=1;exitY=0.5;exitDx=0;exitDy=0;startArrow=none;startFill=0;strokeWidth=1;" edge="1" parent="1">
          <mxGeometry relative="1" as="geometry">
            <mxPoint x="5093.000000000019" y="140" as="sourcePoint" />
            <mxPoint x="5277" y="140" as="targetPoint" />
          </mxGeometry>
        </mxCell>
        <mxCell id="yUJZOOV4ahVOhwS2dNvT-64" value="&lt;font style=&quot;font-size: 17px&quot; color=&quot;#000000&quot;&gt;Developer&lt;/font&gt;" style="aspect=fixed;perimeter=ellipsePerimeter;html=1;align=center;shadow=0;dashed=0;fontColor=#4277BB;labelBackgroundColor=#ffffff;fontSize=12;spacingTop=3;image;image=img/lib/ibm/blockchain/blockchain_developer.svg;fillColor=#666600;" vertex="1" parent="1">
          <mxGeometry x="5000" y="82" width="116" height="116" as="geometry" />
        </mxCell>
        <mxCell id="yUJZOOV4ahVOhwS2dNvT-157" style="edgeStyle=orthogonalEdgeStyle;rounded=0;orthogonalLoop=1;jettySize=auto;html=1;exitX=0.5;exitY=1;exitDx=0;exitDy=0;startArrow=classic;startFill=1;endArrow=classic;endFill=1;" edge="1" parent="1" source="yUJZOOV4ahVOhwS2dNvT-67" target="yUJZOOV4ahVOhwS2dNvT-129">
          <mxGeometry relative="1" as="geometry" />
        </mxCell>
        <mxCell id="yUJZOOV4ahVOhwS2dNvT-158" style="edgeStyle=orthogonalEdgeStyle;rounded=0;orthogonalLoop=1;jettySize=auto;html=1;exitX=0.5;exitY=1;exitDx=0;exitDy=0;startArrow=classic;startFill=1;endArrow=classic;endFill=1;" edge="1" parent="1" source="yUJZOOV4ahVOhwS2dNvT-67" target="yUJZOOV4ahVOhwS2dNvT-93">
          <mxGeometry relative="1" as="geometry" />
        </mxCell>
        <mxCell id="yUJZOOV4ahVOhwS2dNvT-67" value="&lt;font style=&quot;font-size: 17px&quot;&gt;CI/CD server&lt;/font&gt;" style="shape=image;html=1;verticalAlign=top;verticalLabelPosition=bottom;labelBackgroundColor=#ffffff;imageAspect=0;aspect=fixed;image=https://cdn4.iconfinder.com/data/icons/logos-brands-5/24/jenkins-128.png;fillColor=#666600;" vertex="1" parent="1">
          <mxGeometry x="5606" y="70" width="128" height="128" as="geometry" />
        </mxCell>
        <mxCell id="yUJZOOV4ahVOhwS2dNvT-93" value="12i" style="swimlane;whiteSpace=wrap;fillColor=#f5f5f5;strokeColor=#666666;fontColor=#333333;startSize=60;fontSize=30;" vertex="1" parent="1">
          <mxGeometry x="5382" y="340" width="396" height="550" as="geometry" />
        </mxCell>
        <mxCell id="yUJZOOV4ahVOhwS2dNvT-116" style="edgeStyle=orthogonalEdgeStyle;rounded=0;orthogonalLoop=1;jettySize=auto;html=1;exitX=1;exitY=0.5;exitDx=0;exitDy=0;entryX=0;entryY=0.5;entryDx=0;entryDy=0;entryPerimeter=0;startArrow=classic;startFill=1;endArrow=classic;endFill=1;" edge="1" parent="yUJZOOV4ahVOhwS2dNvT-93" source="yUJZOOV4ahVOhwS2dNvT-99" target="yUJZOOV4ahVOhwS2dNvT-84">
          <mxGeometry relative="1" as="geometry" />
        </mxCell>
        <mxCell id="yUJZOOV4ahVOhwS2dNvT-99" value="&lt;font style=&quot;font-size: 17px&quot; color=&quot;#000000&quot;&gt;Alogrothm&lt;/font&gt;" style="aspect=fixed;perimeter=ellipsePerimeter;html=1;align=center;shadow=0;dashed=0;image;image=img/lib/ibm/analytics/streaming_computing.svg;fillColor=#FFFFFF;fontColor=#FFFFFF;labelBackgroundColor=none;" vertex="1" parent="yUJZOOV4ahVOhwS2dNvT-93">
          <mxGeometry x="19" y="392.82" width="91" height="91" as="geometry" />
        </mxCell>
        <mxCell id="yUJZOOV4ahVOhwS2dNvT-117" style="edgeStyle=orthogonalEdgeStyle;rounded=0;orthogonalLoop=1;jettySize=auto;html=1;exitX=0;exitY=0.5;exitDx=0;exitDy=0;entryX=1;entryY=0.5;entryDx=0;entryDy=0;entryPerimeter=0;startArrow=classic;startFill=1;endArrow=classic;endFill=1;" edge="1" parent="yUJZOOV4ahVOhwS2dNvT-93" source="yUJZOOV4ahVOhwS2dNvT-92" target="yUJZOOV4ahVOhwS2dNvT-84">
          <mxGeometry relative="1" as="geometry" />
        </mxCell>
        <mxCell id="yUJZOOV4ahVOhwS2dNvT-92" value="Spotfire server" style="shape=image;verticalLabelPosition=bottom;labelBackgroundColor=#ffffff;verticalAlign=top;aspect=fixed;imageAspect=0;image=data:image/png,iVBORw0KGgoAAAANSUhEUgAAAIQAAACJCAYAAADt2pB5AAAPqklEQVR4Ae2ci29U95XH+ydttxgMxjZ+YhtsjB8QY6ABQhPazTYkjboKqSJllW6iXSkrNa2WNs0mW7UJSogCSTekj91IbXbbTbul24RCGh4BHEOAsfGbe+/Md/Wdyfc3d5hrMx7feRifK330ncyde37nd873njt2LL6QmPRgWA3kgS/ohamZgh4wQ9iEzHlCmCHMEGYIezzO/3i0CWETwiaETQibEDl3gRnCDGGGKPDRaN8hCizUSpkqZggzRM70vGsM8ckVD+KX/+WB/PCVLN9+zgN55Mks93/TA9nzcD46R9U1ikFVbK1F1frLeZqYIcwQy3dCXLrqgbx+Isuhpz2Q3X+bZdeDHiqBclBOVOWq3KnVPEGW1YRQUVVkqoqvZlArYQauqRyUkxmixF/QzBClny5VOyEufOqB/PBIlr2PeCA7H1x+7H3Yg/j+TzyQ8yNZquUxYoYok7lkBqoZ4g6Pkus3PZBXf5pFBRz+Gw93K9ojVXu/Nu5BVGJqVMWEMEOYIXJ+9DJDmCFw5rzn+OZTHsjw1wzVgnrqbIZyPjoq9sgwQ0Sbf8UZ4t3feiDhL1Q7vurByK/Bnoc8kHd/k6XU06LsE8IMkd/4+W4GM4RNipxJedca4vgvPAh9cRw64MEorAaqGVV1LNWjoyyPDG2Cqs2ZGQozA+ukmi17Qxz7mQcy9IBvxFwD1ZYa57Qo6YRQ0maI+G8I1dYMEfOdtlzNumwMEf6ZeccBH+Se+424a6DaUlXzOB4dsT8ylBxVScddDIuXudFUX9W8qgxx6mMPZPeDvmP7V3zMj4ftX8mwbf8cbkfn5r9+odjL5Vw8NVDN1YOlGCO2CaFklBx14WbGU4yF17hTDpU+H08NVHP1wAyx4CSqdNMXWv8uM4T+sof68BN+mm37fRTCwL4ZiMMvTYH86NVJx86vjoHoM9Rt+73PKWyN3Dwy1w7eNwfHvlkM7pvNWUPr8X3H59dk12esxeag3D23nvZI1d4P/9sUhHIpdC31INyXxU6LJT0ywgsrmUKT12apZoi7xBCvHPMgBvf5WAz9905DPPH0VZDwMTuXBHnt+IRjYM8EyOA+L0T+ugN750D690w7hh8YB3nimTHH4ZfGQV4+ejMPnaPqGsWgKrbWokbvP5OrcqdqT9ojVYdqQVV9ouPm71ufe/kND6KsE0JmoCqZQlWbpaoIKgpVxVLxqCqqGWJ+M7D+MgPVDLHPT08HmxCZKVEWQ5y77IEMH/AdA3vZiMLpv3cGonvHRZD//NU1R3ha6PXhl8ZA+u6dcQzs9UD67p1yHDyUAHnvt1MOP0iBLOVQDKpiay2qclBOmbwyuSp3atShvW8e+gRC9VlMXfnZcF/Uq0KNUdSXSi0SXnixSWuzVDME3I0gM1BVo8XWNtwX9aqkhnjuBR+kf89S8NC/J0PPzgTIxv5TjgcOngQ58vqI4613xkC27Bp3bN09AfLyUX45zJBKASTqSKZSEBcuToL88U+JPHSOqs9HxdNaVK2vnKjKVblTtSftkaq9qxZU1Wcpdf7OCz6IGcIMkb5hzRBHx9PTwSZEZnqXzBAXRz2Ie+7zQfq/HA99u+dAtgyPOzZtuwzSOfCxY/P2iyA9Q9cdR4+Pg0QdVz+bgXjm2VMgmwZ/42jpfh+ktecPeegcVdcoBlVxo9Z9/c1xiO6hayDKnao9aY9U7V21oMZRX/VKvaMu9Pgo+EtlOKAWiSNhxlARVBSqiqXiUVVUM0ThN6J6Fe5fLIY4ctyD6NvNJpYCD327M2zdNQvSOzzl6NkxDvLI41cd+lIXvlP/74MESPfg+46Ovr+AbN5+xdE9dAOkZ8dYHjpH1TWKQVVsrUWNOr7x+FUQ5U7VnrRHqvZdmrr6rnfsoRli8P20GcwQmZvaDGGGiH9CPPSYD9G700cl6B66CfLur8cdGtNzcwHE4K6TIJ0DI46eoSmQLcO3HIXuQdcoBlWxtRZV6ysnqnJV7tRC143zcw8d8iFimRAyAzXORBcTS0VVkak61AyqmqSmUdVMNZda6Nq6RjFWtCH0j3/17gwgtgwHqARdg9dAbiRuOWSIX733GUT71gsgPTvmHHHnq9hai6r1lRM1kfDSKHdq3LkUEk+9oy706+w7/thphog2vxnCJkTOnb1iDfH2f/ggPTuCirOxbxQk6njl6AhEx8BnIOXIWWtRtX5UfsqdWo68Flrjp7/wQaK+XN7xkWGGWPhGWHGGeO55H6T7nqDitPWOgHhe0qG78dhbVyE6+m+AlCNnrUU98fNraZQT1fOTaZQ7tRx5LbSGelrUhNDFCy1QrnMqqhliaTenemqGKMGUW3ET4rEnfZDN24KK075lFOTPpyccGs9nz09DtPdeBdm8jXmLuPPPxNVa1AufTKdRTtQ/n5lIo9ypla7lY3/vgxQ1IcwQ8xlphRpi79cCkE2Dlae99zrI91+46AjfjXr99UdHQboG5hxx56/YWosadfzgXy+CKHdq3LksNp56WtSE0MWLXbQUn1dRzRBLuznVUzNEjFNuxU6IvuEApKu/8mzsnQTpGzrjmJ7xQcLHmY9mQDq33nB09fvIsJR9KIbv4motqg7lRFWuyp1a6Vqqp0VNCF1c6U1wfRVVRaaq+GoGVU0yQ0SbXz0tyhCdfQGqhY6tt0BaNo04vnf4PEjUceS1BET7lkmQzj4/RKF7y1yjGFTFjVpXOVGVq3KnVks9zRBmiBwzmiHMEEs3REdvEtVDgI7eAG2bJxwb2k+D/OFkwhE1xp/9TgKkvXvGUei+dI1iUKMO5aCcqMqVeWepbE03DyRBipoQhRatPJ8zQ8RR5yUZond7EmTjlvLS3uODtHXPOnq3T4D80z9PO5o6roB0bf3AcenyNEj48LwUyJf3X3dojai96RxV1ygGVYfWoioH5URVrsqdqj2F14jKoVTv9Q8nQYqaEGYIM0SOc8wQZogcQ+y+LwnS3l162jZ7EP1DN0HeOD7pmJ1Ngrz339OOls4xkA0bRx37D3wIEnUcf2sMonXTFEjU3nSOqs9HxdNaVOWgnKi/fm86jXKnHntzMs32XTchtO+oXOJ+Tz0t6pGhi+NOKiqeikI1Q5TuBlRPizLEo4cCkLbNyRLC+AE29U04Ph31QMJHMpkCefDgBUdz5wRIS9eMY33LxyAffjjuUJyz52YgmjoSIFF70zmqPq8YVMXWWlTloJyoyjUIUhCKoz1Su7beTMM6ZClNzR99PAAxQwCuuWyymm6GyP4TAXf8M3ybEDYhckbJs88FIK1dyZLR0umB/N3jCce16x7Iq0cvO3bv/RCkvuWyo6VzFqS1izlmaGi9CvL2O1k0pkevzEE0tl0FidqbzlH1ecWgKrbWomp95URVrsqdqj1pj1TtXbWgRuUVx3vqaVGPDF0cRyLzxVARVBSqiqXiUVVUFZmq4qsZVDVJTaPqUHOpanpUXjpnhpjMPk/ooDdP+GmaO5MoFU0dt0C6+6456ppOg6xtyFLfPAqyYeOMo7kzQIZsfg1tYyDfO3zZ4QwxOovRz6lvuQIStS+do+rzikFVbK1FzcZRToHLU7lTtSftkaq9qxbUbLzs3uJ4741/90GKmhBmCDNEjnPMEGaIHEOcu+SBNHckHU0bk4iTDe0+SGPbjKOhdQKksXXKsaH9FkjTxiBEfi7ZOGfR2JbhtddHQCYmfUd98xWQqL3oHHVyMkijGNSG1rNpsmvNRMZRrsqdqj1pj+l9fr531YIalVex74X79/EnHkhRjwwzhBki0jn7DgQQG9qTKA0BNrSL4tdobOO08VHfnHCsWX8GpLEtS1N7AiRqLzpH1TWKQVVsrUWNilP4e0vf90JrqXfUqMmg9+74iyl9MBxwoYWXdk5FoZohllKD268N9089jVIzhE2InIlRsCFe+kkA0diawnKgvnkG4u13ZkHuu/+6o75pHGlCn9Pn3bmmcff5Ez+bhdDnlkMdmOOLPw4cUZNB75khaAozhJsSBRviwogH0dqZAmloqW7qm2Yh/uf9WyDhY2IiCfLRX7w8dI6q4/f/ewtCcau9BuqVekfVNIhSM4QZIscgZggzRHGGCI+Xf/jHAKS+KVXV1DVOQWzacgnk+JvjjpFPPZDwn9frtc5RdY1iUBW32mugXoX7t9DrgidEOIgWqfZiqGlUNVPNparpMkFYdc4Mcdv//g4bQa/1u/DWjhTE+g0pVBvrGmYgatZeAPnrmj86/upLvwP54qrf56Fz6fM1J/HFmpPp6xVnXcM0SLXtmfmoJ1T1Sr27kxY1IbRIeOFqLIzMQFUjzRAx/ZQRdpYZ4kJ6OtiEuO1x8vyLAURdYwrVxroGD2JNXQJk1ZqzjoOPnAfZtedUHl8/eA5C1ygGVXGrbc/M5wcvBo7wjVzI66IeGQosM1CrsTBqGlXNVHOpZoj8x8eSDPHZmAexa08SZF1DqipZW++D1K6fcDz2rQTIjRtBHoe+lYDQNYpBrcZ9qgfqCVU3b6FqhjBD5JjGDGGGiM8Q4TH0wWkfpLU95Vi3PoVqY23dLYjVtTdAalaP5LG6NgGhz1fbXpRPS1sK5E+n/TThviz29ZImRHgxM0TlzF+VhpA53v65D1FXnwJZW1c91K7zIGrWJEC+VHMpj9W1YxD6fDXtQ7Wlqt7qwVI0tgmhJJQcVUlXUyHVXKoZIv+nEDOETYjSfKnUhAjrj14OQGrXpaqIJGrXZVizdg6kZs1EHjpH1eeraR+qLTVc86W+jn1ChBNS0tVUyGxzk2kzmCFyHxslNYTM8eMjAcTaOoCsWWsUWgPVjKo6qrZxqxliGRjTDLEMmlTo3R3H5+46Q4TH2lsnApANzXCsrgWM/Bo0NgFENaOGa1mK12V5ZIQT1+bMEPkGuP2mWBGGkDn0e3fq0HAqzeo1wErnnh0piJMf+CCqWTm07BNCmzJDRJtfZqCuKEPIGFT9Qcd3DwcQ6+sBUrP67kV7pH73X4I0qkUxf9wSrmmxrys2IcIJqwgyA1XFMkPk/uIoXLdSvDZDVHACyfQ2IW776+0op3903gf59jNJhwq4qgZYbtStB8STTyVBPjrnO6JqUIn3qmJCRG3cDFHeR4V6ULWGUIJhPX/ZA3n+hcAxtCMFUlMDx6pVQCVQDsqJqlyVOzW8p2p7bYaI0TxmiAK+C8R5B+gu011H1d2oZlArMR24pnJQTjYhymyQsNnOXvQgjh4LQJ56Oum4/0AKZEtvFv1qeE0tcDs6R9U1ikFVbK1F1frhvJbb62X1yFiouGoGVU1S06hqpppLVdNvNwP/W+fMEBW8yxdquJ0rz5fRu2ZCmGHiMYwZwiZizo/BZggzhBnCHi/zP15sQtiEsAlhE2L+CfH/PMQr9+5xuZUAAAAASUVORK5CYII=;fontSize=17;" vertex="1" parent="yUJZOOV4ahVOhwS2dNvT-93">
          <mxGeometry x="286" y="389.99999999999983" width="92.16" height="95.65" as="geometry" />
        </mxCell>
        <mxCell id="yUJZOOV4ahVOhwS2dNvT-118" style="edgeStyle=orthogonalEdgeStyle;rounded=0;orthogonalLoop=1;jettySize=auto;html=1;entryX=0.5;entryY=0;entryDx=0;entryDy=0;startArrow=classic;startFill=1;endArrow=classic;endFill=1;exitX=0.732;exitY=0.479;exitDx=0;exitDy=0;exitPerimeter=0;" edge="1" parent="yUJZOOV4ahVOhwS2dNvT-93" source="yUJZOOV4ahVOhwS2dNvT-68" target="yUJZOOV4ahVOhwS2dNvT-92">
          <mxGeometry relative="1" as="geometry" />
        </mxCell>
        <mxCell id="yUJZOOV4ahVOhwS2dNvT-119" style="edgeStyle=orthogonalEdgeStyle;rounded=0;orthogonalLoop=1;jettySize=auto;html=1;entryX=0.5;entryY=0;entryDx=0;entryDy=0;startArrow=classic;startFill=1;endArrow=classic;endFill=1;exitX=0;exitY=0.5;exitDx=0;exitDy=0;exitPerimeter=0;" edge="1" parent="yUJZOOV4ahVOhwS2dNvT-93" source="yUJZOOV4ahVOhwS2dNvT-68" target="yUJZOOV4ahVOhwS2dNvT-99">
          <mxGeometry relative="1" as="geometry">
            <mxPoint x="120" y="161" as="sourcePoint" />
          </mxGeometry>
        </mxCell>
        <mxCell id="yUJZOOV4ahVOhwS2dNvT-68" value="&lt;font style=&quot;font-size: 17px&quot;&gt;Web server&amp;nbsp;&lt;br&gt;&lt;/font&gt;" style="aspect=fixed;pointerEvents=1;shadow=0;dashed=0;html=1;strokeColor=none;labelPosition=center;verticalLabelPosition=bottom;verticalAlign=top;align=center;fillColor=#00188D;shape=mxgraph.mscae.enterprise.web_server" vertex="1" parent="yUJZOOV4ahVOhwS2dNvT-93">
          <mxGeometry x="160.00000000000006" y="72" width="107.16" height="141" as="geometry" />
        </mxCell>
        <mxCell id="yUJZOOV4ahVOhwS2dNvT-84" value="&lt;font style=&quot;font-size: 17px&quot;&gt;Database&lt;br&gt;config table, file&lt;br&gt;&lt;/font&gt;" style="verticalLabelPosition=bottom;html=1;verticalAlign=top;align=center;strokeColor=none;fillColor=#00BEF2;shape=mxgraph.azure.database;fontSize=18;" vertex="1" parent="yUJZOOV4ahVOhwS2dNvT-93">
          <mxGeometry x="151.62" y="402.82" width="92.75" height="70" as="geometry" />
        </mxCell>
        <mxCell id="yUJZOOV4ahVOhwS2dNvT-167" style="edgeStyle=orthogonalEdgeStyle;rounded=0;orthogonalLoop=1;jettySize=auto;html=1;entryX=0.5;entryY=0;entryDx=0;entryDy=0;entryPerimeter=0;startArrow=classic;startFill=1;endArrow=classic;endFill=1;" edge="1" parent="yUJZOOV4ahVOhwS2dNvT-93">
          <mxGeometry relative="1" as="geometry">
            <mxPoint x="198" y="237.99999999999977" as="sourcePoint" />
            <mxPoint x="197.9950000000008" y="402.81999999999994" as="targetPoint" />
            <Array as="points">
              <mxPoint x="198" y="298" />
              <mxPoint x="198" y="298" />
            </Array>
          </mxGeometry>
        </mxCell>
        <mxCell id="yUJZOOV4ahVOhwS2dNvT-129" value="12a" style="swimlane;whiteSpace=wrap;fillColor=#f5f5f5;strokeColor=#666666;fontColor=#333333;startSize=60;fontSize=30;" vertex="1" parent="1">
          <mxGeometry x="4969" y="340" width="400" height="550" as="geometry" />
        </mxCell>
        <mxCell id="yUJZOOV4ahVOhwS2dNvT-156" style="edgeStyle=orthogonalEdgeStyle;rounded=0;orthogonalLoop=1;jettySize=auto;html=1;exitX=0.5;exitY=0;exitDx=0;exitDy=0;startArrow=classic;startFill=1;endArrow=classic;endFill=1;" edge="1" parent="yUJZOOV4ahVOhwS2dNvT-129" source="yUJZOOV4ahVOhwS2dNvT-131">
          <mxGeometry relative="1" as="geometry">
            <mxPoint x="343" y="330" as="targetPoint" />
          </mxGeometry>
        </mxCell>
        <mxCell id="yUJZOOV4ahVOhwS2dNvT-131" value="&lt;font style=&quot;font-size: 17px&quot; color=&quot;#000000&quot;&gt;Alogrothm&lt;/font&gt;" style="aspect=fixed;perimeter=ellipsePerimeter;html=1;align=center;shadow=0;dashed=0;image;image=img/lib/ibm/analytics/streaming_computing.svg;fillColor=#FFFFFF;fontColor=#FFFFFF;labelBackgroundColor=none;" vertex="1" parent="yUJZOOV4ahVOhwS2dNvT-129">
          <mxGeometry x="297" y="394" width="91" height="91" as="geometry" />
        </mxCell>
        <mxCell id="yUJZOOV4ahVOhwS2dNvT-152" style="edgeStyle=orthogonalEdgeStyle;rounded=0;orthogonalLoop=1;jettySize=auto;html=1;exitX=1;exitY=0.5;exitDx=0;exitDy=0;entryX=0;entryY=0.5;entryDx=0;entryDy=0;entryPerimeter=0;startArrow=classic;startFill=1;endArrow=classic;endFill=1;" edge="1" parent="yUJZOOV4ahVOhwS2dNvT-129" source="yUJZOOV4ahVOhwS2dNvT-133" target="yUJZOOV4ahVOhwS2dNvT-137">
          <mxGeometry relative="1" as="geometry" />
        </mxCell>
        <mxCell id="yUJZOOV4ahVOhwS2dNvT-133" value="Spotfire server" style="shape=image;verticalLabelPosition=bottom;labelBackgroundColor=#ffffff;verticalAlign=top;aspect=fixed;imageAspect=0;image=data:image/png,iVBORw0KGgoAAAANSUhEUgAAAIQAAACJCAYAAADt2pB5AAAPqklEQVR4Ae2ci29U95XH+ydttxgMxjZ+YhtsjB8QY6ABQhPazTYkjboKqSJllW6iXSkrNa2WNs0mW7UJSogCSTekj91IbXbbTbul24RCGh4BHEOAsfGbe+/Md/Wdyfc3d5hrMx7feRifK330ncyde37nd873njt2LL6QmPRgWA3kgS/ohamZgh4wQ9iEzHlCmCHMEGYIezzO/3i0CWETwiaETQibEDl3gRnCDGGGKPDRaN8hCizUSpkqZggzRM70vGsM8ckVD+KX/+WB/PCVLN9+zgN55Mks93/TA9nzcD46R9U1ikFVbK1F1frLeZqYIcwQy3dCXLrqgbx+Isuhpz2Q3X+bZdeDHiqBclBOVOWq3KnVPEGW1YRQUVVkqoqvZlArYQauqRyUkxmixF/QzBClny5VOyEufOqB/PBIlr2PeCA7H1x+7H3Yg/j+TzyQ8yNZquUxYoYok7lkBqoZ4g6Pkus3PZBXf5pFBRz+Gw93K9ojVXu/Nu5BVGJqVMWEMEOYIXJ+9DJDmCFw5rzn+OZTHsjw1wzVgnrqbIZyPjoq9sgwQ0Sbf8UZ4t3feiDhL1Q7vurByK/Bnoc8kHd/k6XU06LsE8IMkd/4+W4GM4RNipxJedca4vgvPAh9cRw64MEorAaqGVV1LNWjoyyPDG2Cqs2ZGQozA+ukmi17Qxz7mQcy9IBvxFwD1ZYa57Qo6YRQ0maI+G8I1dYMEfOdtlzNumwMEf6ZeccBH+Se+424a6DaUlXzOB4dsT8ylBxVScddDIuXudFUX9W8qgxx6mMPZPeDvmP7V3zMj4ftX8mwbf8cbkfn5r9+odjL5Vw8NVDN1YOlGCO2CaFklBx14WbGU4yF17hTDpU+H08NVHP1wAyx4CSqdNMXWv8uM4T+sof68BN+mm37fRTCwL4ZiMMvTYH86NVJx86vjoHoM9Rt+73PKWyN3Dwy1w7eNwfHvlkM7pvNWUPr8X3H59dk12esxeag3D23nvZI1d4P/9sUhHIpdC31INyXxU6LJT0ywgsrmUKT12apZoi7xBCvHPMgBvf5WAz9905DPPH0VZDwMTuXBHnt+IRjYM8EyOA+L0T+ugN750D690w7hh8YB3nimTHH4ZfGQV4+ejMPnaPqGsWgKrbWokbvP5OrcqdqT9ojVYdqQVV9ouPm71ufe/kND6KsE0JmoCqZQlWbpaoIKgpVxVLxqCqqGWJ+M7D+MgPVDLHPT08HmxCZKVEWQ5y77IEMH/AdA3vZiMLpv3cGonvHRZD//NU1R3ha6PXhl8ZA+u6dcQzs9UD67p1yHDyUAHnvt1MOP0iBLOVQDKpiay2qclBOmbwyuSp3atShvW8e+gRC9VlMXfnZcF/Uq0KNUdSXSi0SXnixSWuzVDME3I0gM1BVo8XWNtwX9aqkhnjuBR+kf89S8NC/J0PPzgTIxv5TjgcOngQ58vqI4613xkC27Bp3bN09AfLyUX45zJBKASTqSKZSEBcuToL88U+JPHSOqs9HxdNaVK2vnKjKVblTtSftkaq9qxZU1Wcpdf7OCz6IGcIMkb5hzRBHx9PTwSZEZnqXzBAXRz2Ie+7zQfq/HA99u+dAtgyPOzZtuwzSOfCxY/P2iyA9Q9cdR4+Pg0QdVz+bgXjm2VMgmwZ/42jpfh+ktecPeegcVdcoBlVxo9Z9/c1xiO6hayDKnao9aY9U7V21oMZRX/VKvaMu9Pgo+EtlOKAWiSNhxlARVBSqiqXiUVVUM0ThN6J6Fe5fLIY4ctyD6NvNJpYCD327M2zdNQvSOzzl6NkxDvLI41cd+lIXvlP/74MESPfg+46Ovr+AbN5+xdE9dAOkZ8dYHjpH1TWKQVVsrUWNOr7x+FUQ5U7VnrRHqvZdmrr6rnfsoRli8P20GcwQmZvaDGGGiH9CPPSYD9G700cl6B66CfLur8cdGtNzcwHE4K6TIJ0DI46eoSmQLcO3HIXuQdcoBlWxtRZV6ysnqnJV7tRC143zcw8d8iFimRAyAzXORBcTS0VVkak61AyqmqSmUdVMNZda6Nq6RjFWtCH0j3/17gwgtgwHqARdg9dAbiRuOWSIX733GUT71gsgPTvmHHHnq9hai6r1lRM1kfDSKHdq3LkUEk+9oy706+w7/thphog2vxnCJkTOnb1iDfH2f/ggPTuCirOxbxQk6njl6AhEx8BnIOXIWWtRtX5UfsqdWo68Flrjp7/wQaK+XN7xkWGGWPhGWHGGeO55H6T7nqDitPWOgHhe0qG78dhbVyE6+m+AlCNnrUU98fNraZQT1fOTaZQ7tRx5LbSGelrUhNDFCy1QrnMqqhliaTenemqGKMGUW3ET4rEnfZDN24KK075lFOTPpyccGs9nz09DtPdeBdm8jXmLuPPPxNVa1AufTKdRTtQ/n5lIo9ypla7lY3/vgxQ1IcwQ8xlphRpi79cCkE2Dlae99zrI91+46AjfjXr99UdHQboG5hxx56/YWosadfzgXy+CKHdq3LksNp56WtSE0MWLXbQUn1dRzRBLuznVUzNEjFNuxU6IvuEApKu/8mzsnQTpGzrjmJ7xQcLHmY9mQDq33nB09fvIsJR9KIbv4motqg7lRFWuyp1a6Vqqp0VNCF1c6U1wfRVVRaaq+GoGVU0yQ0SbXz0tyhCdfQGqhY6tt0BaNo04vnf4PEjUceS1BET7lkmQzj4/RKF7y1yjGFTFjVpXOVGVq3KnVks9zRBmiBwzmiHMEEs3REdvEtVDgI7eAG2bJxwb2k+D/OFkwhE1xp/9TgKkvXvGUei+dI1iUKMO5aCcqMqVeWepbE03DyRBipoQhRatPJ8zQ8RR5yUZond7EmTjlvLS3uODtHXPOnq3T4D80z9PO5o6roB0bf3AcenyNEj48LwUyJf3X3dojai96RxV1ygGVYfWoioH5URVrsqdqj2F14jKoVTv9Q8nQYqaEGYIM0SOc8wQZogcQ+y+LwnS3l162jZ7EP1DN0HeOD7pmJ1Ngrz339OOls4xkA0bRx37D3wIEnUcf2sMonXTFEjU3nSOqs9HxdNaVOWgnKi/fm86jXKnHntzMs32XTchtO+oXOJ+Tz0t6pGhi+NOKiqeikI1Q5TuBlRPizLEo4cCkLbNyRLC+AE29U04Ph31QMJHMpkCefDgBUdz5wRIS9eMY33LxyAffjjuUJyz52YgmjoSIFF70zmqPq8YVMXWWlTloJyoyjUIUhCKoz1Su7beTMM6ZClNzR99PAAxQwCuuWyymm6GyP4TAXf8M3ybEDYhckbJs88FIK1dyZLR0umB/N3jCce16x7Iq0cvO3bv/RCkvuWyo6VzFqS1izlmaGi9CvL2O1k0pkevzEE0tl0FidqbzlH1ecWgKrbWomp95URVrsqdqj1pj1TtXbWgRuUVx3vqaVGPDF0cRyLzxVARVBSqiqXiUVVUFZmq4qsZVDVJTaPqUHOpanpUXjpnhpjMPk/ooDdP+GmaO5MoFU0dt0C6+6456ppOg6xtyFLfPAqyYeOMo7kzQIZsfg1tYyDfO3zZ4QwxOovRz6lvuQIStS+do+rzikFVbK1FzcZRToHLU7lTtSftkaq9qxbUbLzs3uJ4741/90GKmhBmCDNEjnPMEGaIHEOcu+SBNHckHU0bk4iTDe0+SGPbjKOhdQKksXXKsaH9FkjTxiBEfi7ZOGfR2JbhtddHQCYmfUd98xWQqL3oHHVyMkijGNSG1rNpsmvNRMZRrsqdqj1pj+l9fr531YIalVex74X79/EnHkhRjwwzhBki0jn7DgQQG9qTKA0BNrSL4tdobOO08VHfnHCsWX8GpLEtS1N7AiRqLzpH1TWKQVVsrUWNilP4e0vf90JrqXfUqMmg9+74iyl9MBxwoYWXdk5FoZohllKD268N9089jVIzhE2InIlRsCFe+kkA0diawnKgvnkG4u13ZkHuu/+6o75pHGlCn9Pn3bmmcff5Ez+bhdDnlkMdmOOLPw4cUZNB75khaAozhJsSBRviwogH0dqZAmloqW7qm2Yh/uf9WyDhY2IiCfLRX7w8dI6q4/f/ewtCcau9BuqVekfVNIhSM4QZIscgZggzRHGGCI+Xf/jHAKS+KVXV1DVOQWzacgnk+JvjjpFPPZDwn9frtc5RdY1iUBW32mugXoX7t9DrgidEOIgWqfZiqGlUNVPNparpMkFYdc4Mcdv//g4bQa/1u/DWjhTE+g0pVBvrGmYgatZeAPnrmj86/upLvwP54qrf56Fz6fM1J/HFmpPp6xVnXcM0SLXtmfmoJ1T1Sr27kxY1IbRIeOFqLIzMQFUjzRAx/ZQRdpYZ4kJ6OtiEuO1x8vyLAURdYwrVxroGD2JNXQJk1ZqzjoOPnAfZtedUHl8/eA5C1ygGVXGrbc/M5wcvBo7wjVzI66IeGQosM1CrsTBqGlXNVHOpZoj8x8eSDPHZmAexa08SZF1DqipZW++D1K6fcDz2rQTIjRtBHoe+lYDQNYpBrcZ9qgfqCVU3b6FqhjBD5JjGDGGGiM8Q4TH0wWkfpLU95Vi3PoVqY23dLYjVtTdAalaP5LG6NgGhz1fbXpRPS1sK5E+n/TThviz29ZImRHgxM0TlzF+VhpA53v65D1FXnwJZW1c91K7zIGrWJEC+VHMpj9W1YxD6fDXtQ7Wlqt7qwVI0tgmhJJQcVUlXUyHVXKoZIv+nEDOETYjSfKnUhAjrj14OQGrXpaqIJGrXZVizdg6kZs1EHjpH1eeraR+qLTVc86W+jn1ChBNS0tVUyGxzk2kzmCFyHxslNYTM8eMjAcTaOoCsWWsUWgPVjKo6qrZxqxliGRjTDLEMmlTo3R3H5+46Q4TH2lsnApANzXCsrgWM/Bo0NgFENaOGa1mK12V5ZIQT1+bMEPkGuP2mWBGGkDn0e3fq0HAqzeo1wErnnh0piJMf+CCqWTm07BNCmzJDRJtfZqCuKEPIGFT9Qcd3DwcQ6+sBUrP67kV7pH73X4I0qkUxf9wSrmmxrys2IcIJqwgyA1XFMkPk/uIoXLdSvDZDVHACyfQ2IW776+0op3903gf59jNJhwq4qgZYbtStB8STTyVBPjrnO6JqUIn3qmJCRG3cDFHeR4V6ULWGUIJhPX/ZA3n+hcAxtCMFUlMDx6pVQCVQDsqJqlyVOzW8p2p7bYaI0TxmiAK+C8R5B+gu011H1d2oZlArMR24pnJQTjYhymyQsNnOXvQgjh4LQJ56Oum4/0AKZEtvFv1qeE0tcDs6R9U1ikFVbK1F1frhvJbb62X1yFiouGoGVU1S06hqpppLVdNvNwP/W+fMEBW8yxdquJ0rz5fRu2ZCmGHiMYwZwiZizo/BZggzhBnCHi/zP15sQtiEsAlhE2L+CfH/PMQr9+5xuZUAAAAASUVORK5CYII=;fontSize=17;" vertex="1" parent="yUJZOOV4ahVOhwS2dNvT-129">
          <mxGeometry x="15" y="391.99999999999983" width="92.16" height="95.65" as="geometry" />
        </mxCell>
        <mxCell id="yUJZOOV4ahVOhwS2dNvT-153" style="edgeStyle=orthogonalEdgeStyle;rounded=0;orthogonalLoop=1;jettySize=auto;html=1;exitX=0;exitY=0.5;exitDx=0;exitDy=0;exitPerimeter=0;entryX=0.5;entryY=0;entryDx=0;entryDy=0;startArrow=classic;startFill=1;endArrow=classic;endFill=1;" edge="1" parent="yUJZOOV4ahVOhwS2dNvT-129" source="yUJZOOV4ahVOhwS2dNvT-136" target="yUJZOOV4ahVOhwS2dNvT-133">
          <mxGeometry relative="1" as="geometry" />
        </mxCell>
        <mxCell id="yUJZOOV4ahVOhwS2dNvT-166" style="edgeStyle=orthogonalEdgeStyle;rounded=0;orthogonalLoop=1;jettySize=auto;html=1;entryX=0.5;entryY=0;entryDx=0;entryDy=0;entryPerimeter=0;startArrow=classic;startFill=1;endArrow=classic;endFill=1;" edge="1" parent="yUJZOOV4ahVOhwS2dNvT-129" target="yUJZOOV4ahVOhwS2dNvT-137">
          <mxGeometry relative="1" as="geometry">
            <mxPoint x="198" y="240" as="sourcePoint" />
          </mxGeometry>
        </mxCell>
        <mxCell id="yUJZOOV4ahVOhwS2dNvT-136" value="&lt;font style=&quot;font-size: 17px&quot;&gt;Web server&amp;nbsp;&lt;br&gt;&lt;/font&gt;" style="aspect=fixed;pointerEvents=1;shadow=0;dashed=0;html=1;strokeColor=none;labelPosition=center;verticalLabelPosition=bottom;verticalAlign=top;align=center;fillColor=#00188D;shape=mxgraph.mscae.enterprise.web_server" vertex="1" parent="yUJZOOV4ahVOhwS2dNvT-129">
          <mxGeometry x="160.00000000000006" y="72" width="107.16" height="141" as="geometry" />
        </mxCell>
        <mxCell id="yUJZOOV4ahVOhwS2dNvT-154" style="edgeStyle=orthogonalEdgeStyle;rounded=0;orthogonalLoop=1;jettySize=auto;html=1;exitX=1;exitY=0.5;exitDx=0;exitDy=0;exitPerimeter=0;startArrow=classic;startFill=1;endArrow=classic;endFill=1;" edge="1" parent="yUJZOOV4ahVOhwS2dNvT-129" source="yUJZOOV4ahVOhwS2dNvT-137" target="yUJZOOV4ahVOhwS2dNvT-131">
          <mxGeometry relative="1" as="geometry" />
        </mxCell>
        <mxCell id="yUJZOOV4ahVOhwS2dNvT-137" value="&lt;font style=&quot;font-size: 17px&quot;&gt;Database&lt;br&gt;config table, file&lt;br&gt;&lt;/font&gt;" style="verticalLabelPosition=bottom;html=1;verticalAlign=top;align=center;strokeColor=none;fillColor=#00BEF2;shape=mxgraph.azure.database;fontSize=18;" vertex="1" parent="yUJZOOV4ahVOhwS2dNvT-129">
          <mxGeometry x="151.62" y="404.82" width="92.75" height="70" as="geometry" />
        </mxCell>
        <mxCell id="yUJZOOV4ahVOhwS2dNvT-150" value="&lt;font style=&quot;font-size: 17px&quot;&gt;Kubernetes&lt;br&gt;Services&lt;/font&gt;" style="aspect=fixed;html=1;points=[];align=center;image;fontSize=12;image=img/lib/mscae/Kubernetes.svg;" vertex="1" parent="yUJZOOV4ahVOhwS2dNvT-129">
          <mxGeometry x="294.25" y="193.99999999999997" width="93.75" height="90" as="geometry" />
        </mxCell>
        <mxCell id="yUJZOOV4ahVOhwS2dNvT-163" style="edgeStyle=orthogonalEdgeStyle;rounded=0;orthogonalLoop=1;jettySize=auto;html=1;exitX=0.005;exitY=0.63;exitDx=0;exitDy=0;exitPerimeter=0;entryX=0.645;entryY=0.404;entryDx=0;entryDy=0;entryPerimeter=0;startArrow=classic;startFill=1;endArrow=classic;endFill=1;" edge="1" parent="yUJZOOV4ahVOhwS2dNvT-129" source="yUJZOOV4ahVOhwS2dNvT-160" target="yUJZOOV4ahVOhwS2dNvT-136">
          <mxGeometry relative="1" as="geometry" />
        </mxCell>
        <mxCell id="yUJZOOV4ahVOhwS2dNvT-160" value="&lt;font style=&quot;font-size: 17px&quot;&gt;&lt;br&gt;&lt;br&gt;&lt;br&gt;&lt;br&gt;&lt;br&gt;&lt;br&gt;IGA&lt;/font&gt;" style="html=1;dashed=0;whitespace=wrap;strokeColor=#ffffff;points=[[0.005,0.63,0],[0.1,0.2,0],[0.9,0.2,0],[0.5,0,0],[0.995,0.63,0],[0.72,0.99,0],[0.5,1,0],[0.28,0.99,0]];shape=mxgraph.kubernetes.icon;prIcon=psp;fillColor=#FF3333;" vertex="1" parent="yUJZOOV4ahVOhwS2dNvT-129">
          <mxGeometry x="295.87" y="74" width="80" height="88" as="geometry" />
        </mxCell>
        <mxCell id="yUJZOOV4ahVOhwS2dNvT-159" style="edgeStyle=orthogonalEdgeStyle;rounded=0;orthogonalLoop=1;jettySize=auto;html=1;exitX=0.25;exitY=0;exitDx=0;exitDy=0;startArrow=classic;startFill=1;endArrow=classic;endFill=1;dashed=1;" edge="1" parent="1" source="yUJZOOV4ahVOhwS2dNvT-99">
          <mxGeometry relative="1" as="geometry">
            <mxPoint x="5360" y="590" as="targetPoint" />
            <Array as="points">
              <mxPoint x="5427" y="590" />
            </Array>
          </mxGeometry>
        </mxCell>
        <mxCell id="yUJZOOV4ahVOhwS2dNvT-164" style="edgeStyle=orthogonalEdgeStyle;rounded=0;orthogonalLoop=1;jettySize=auto;html=1;exitX=0.995;exitY=0.63;exitDx=0;exitDy=0;exitPerimeter=0;startArrow=classic;startFill=1;endArrow=classic;endFill=1;dashed=1;" edge="1" parent="1" source="yUJZOOV4ahVOhwS2dNvT-160">
          <mxGeometry relative="1" as="geometry">
            <mxPoint x="5540" y="469" as="targetPoint" />
          </mxGeometry>
        </mxCell>
      </root>
    </mxGraphModel>
  </diagram>
</mxfile>
